<svg width="60" height="51" viewBox="0 0 60 51" fill="none" xmlns="http://www.w3.org/2000/svg">
<g filter="url(#filter0_i_367_3)">
<path d="M19.38 0.789999C22.88 0.789999 25.8433 1.21 28.27 2.05C30.7433 2.89 32.7033 4.29 34.15 6.25C35.6433 8.16333 36.7167 10.73 37.37 13.95C38.07 17.17 38.42 21.1367 38.42 25.85C38.42 30.5633 38.07 34.53 37.37 37.75C36.7167 40.97 35.6433 43.56 34.15 45.52C32.7033 47.4333 30.7433 48.81 28.27 49.65C25.8433 50.49 22.88 50.91 19.38 50.91C15.88 50.91 12.8933 50.49 10.42 49.65C7.99333 48.81 6.03333 47.4333 4.54 45.52C3.04667 43.56 1.95 40.97 1.25 37.75C0.596667 34.53 0.27 30.5633 0.27 25.85C0.27 21.1367 0.596667 17.17 1.25 13.95C1.95 10.73 3.04667 8.16333 4.54 6.25C6.03333 4.29 7.99333 2.89 10.42 2.05C12.8933 1.21 15.88 0.789999 19.38 0.789999ZM19.38 6.32C16.2067 6.32 13.6867 6.92666 11.82 8.14C10 9.35333 8.69333 11.3833 7.9 14.23C7.15333 17.03 6.78 20.9033 6.78 25.85C6.78 30.75 7.15333 34.6233 7.9 37.47C8.69333 40.3167 10 42.3467 11.82 43.56C13.6867 44.7733 16.2067 45.38 19.38 45.38C22.5533 45.38 25.05 44.7733 26.87 43.56C28.7367 42.3467 30.0433 40.3167 30.79 37.47C31.5833 34.6233 31.98 30.75 31.98 25.85C31.98 20.9033 31.5833 17.03 30.79 14.23C30.0433 11.3833 28.7367 9.35333 26.87 8.14C25.05 6.92666 22.5533 6.32 19.38 6.32ZM59.4473 1.7V39.85C59.4473 43.3967 58.6307 46.08 56.9973 47.9C55.4107 49.72 53.1007 50.63 50.0673 50.63C49.4607 50.63 48.7373 50.5833 47.8973 50.49C47.104 50.4433 46.3107 50.35 45.5173 50.21C44.7707 50.07 44.1407 49.9067 43.6273 49.72L44.3273 45.38H47.8273C51.4673 45.38 53.2873 43.6067 53.2873 40.06V1.7H59.4473Z" fill="url(#paint0_linear_367_3)"/>
</g>
<defs>
<filter id="filter0_i_367_3" x="0.269989" y="0.790039" width="59.1773" height="54.1199" filterUnits="userSpaceOnUse" color-interpolation-filters="sRGB">
<feFlood flood-opacity="0" result="BackgroundImageFix"/>
<feBlend mode="normal" in="SourceGraphic" in2="BackgroundImageFix" result="shape"/>
<feColorMatrix in="SourceAlpha" type="matrix" values="0 0 0 0 0 0 0 0 0 0 0 0 0 0 0 0 0 0 127 0" result="hardAlpha"/>
<feOffset dy="4"/>
<feGaussianBlur stdDeviation="2"/>
<feComposite in2="hardAlpha" operator="arithmetic" k2="-1" k3="1"/>
<feColorMatrix type="matrix" values="0 0 0 0 0 0 0 0 0 0 0 0 0 0 0 0 0 0 0.25 0"/>
<feBlend mode="normal" in2="shape" result="effect1_innerShadow_367_3"/>
</filter>
<linearGradient id="paint0_linear_367_3" x1="-4" y1="22" x2="66" y2="22" gradientUnits="userSpaceOnUse">
<stop stop-color="#D9D9D9"/>
<stop offset="1" stop-color="#5E52FF"/>
</linearGradient>
</defs>
</svg>
